<svg preserveAspectRatio="xMidYMid meet" width="24" height="24" overflow="visible" style="display: block;" viewBox="0 0 17.5 19.5" fill="none" xmlns="http://www.w3.org/2000/svg">
<path id="Vector" d="M4.75 2.75H3.9502C2.83009 2.75 2.26962 2.75 1.8418 2.96799C1.46547 3.15973 1.15973 3.46547 0.967988 3.8418C0.750001 4.26962 0.750001 4.83009 0.750001 5.9502V6.75M4.75 2.75H12.75M4.75 2.75V0.75M12.75 2.75H13.5502C14.6703 2.75 15.2296 2.75 15.6574 2.96799C16.0337 3.15973 16.3405 3.46547 16.5322 3.8418C16.75 4.2692 16.75 4.82899 16.75 5.94691V6.75M12.75 2.75V0.75M0.750001 6.75V15.5502C0.750001 16.6703 0.750001 17.2301 0.967988 17.6579C1.15973 18.0342 1.46547 18.3405 1.8418 18.5322C2.2692 18.75 2.82899 18.75 3.94691 18.75H13.5531C14.671 18.75 15.23 18.75 15.6574 18.5322C16.0337 18.3405 16.3405 18.0342 16.5322 17.6579C16.75 17.2305 16.75 16.6715 16.75 15.5536V6.75M0.750001 6.75H16.75M12.75 14.75H12.752L12.752 14.752L12.75 14.752V14.75ZM8.75 14.75H8.752L8.75195 14.752L8.75 14.752V14.75ZM4.75 14.75H4.752L4.75195 14.752L4.75 14.752V14.75ZM12.752 10.75V10.752L12.75 10.752V10.75H12.752ZM8.75 10.75H8.752L8.75195 10.752L8.75 10.752V10.75ZM4.75 10.75H4.752L4.75195 10.752L4.75 10.752V10.75Z" stroke="currentColor" stroke-width="1.5" stroke-linecap="round" stroke-linejoin="round"/>
</svg>
