<svg preserveAspectRatio="xMidYMid meet" width="24" height="24" overflow="visible" style="display: block;" viewBox="0 0 19.5005 19.5" fill="none" xmlns="http://www.w3.org/2000/svg">
<path id="Vector" d="M7.25246 2.00722C6.94873 1.2479 6.21332 0.75 5.39551 0.75H2.64474C1.5983 0.75 0.75 1.5981 0.75 2.64453C0.75 11.5392 7.96078 18.75 16.8555 18.75C17.9019 18.75 18.75 17.9016 18.75 16.8552L18.7505 14.104C18.7505 13.2861 18.2527 12.5509 17.4934 12.2471L14.8569 11.1929C14.1749 10.9201 13.3983 11.0429 12.8339 11.5132L12.1535 12.0807C11.3589 12.7429 10.1896 12.6902 9.4582 11.9588L7.54222 10.0411C6.81079 9.30962 6.75673 8.14134 7.41895 7.34668L7.98633 6.6663C8.45661 6.10195 8.58049 5.32516 8.30766 4.64309L7.25246 2.00722Z" stroke="currentColor" stroke-width="1.5" stroke-linecap="round" stroke-linejoin="round"/>
</svg>
