<svg preserveAspectRatio="xMidYMid meet" width="24" height="24" overflow="visible" style="display: block;" viewBox="0 0 19.5 15.5" fill="none" xmlns="http://www.w3.org/2000/svg">
<path id="Vector" d="M1.75 1.75L7.85764 6.36227L7.85967 6.36396C8.53785 6.86129 8.87714 7.1101 9.24876 7.20622C9.57723 7.29117 9.92251 7.29117 10.251 7.20622C10.6229 7.11001 10.9632 6.86047 11.6426 6.36227C11.6426 6.36227 15.5601 3.35594 17.75 1.75M0.750001 11.5502V3.9502C0.750001 2.83009 0.750001 2.26962 0.967988 1.8418C1.15973 1.46547 1.46547 1.15973 1.8418 0.967988C2.26962 0.750001 2.83009 0.750001 3.9502 0.750001H15.5502C16.6703 0.750001 17.2296 0.750001 17.6574 0.967988C18.0337 1.15973 18.3405 1.46547 18.5322 1.8418C18.75 2.2692 18.75 2.82899 18.75 3.94691V11.5536C18.75 12.6715 18.75 13.2305 18.5322 13.6579C18.3405 14.0342 18.0337 14.3405 17.6574 14.5322C17.23 14.75 16.671 14.75 15.5531 14.75H3.94691C2.82899 14.75 2.2692 14.75 1.8418 14.5322C1.46547 14.3405 1.15973 14.0342 0.967988 13.6579C0.750001 13.2301 0.750001 12.6703 0.750001 11.5502Z" stroke="currentColor" stroke-width="1.5" stroke-linecap="round" stroke-linejoin="round"/>
</svg>
