<svg preserveAspectRatio="xMidYMid meet" width="24" height="24" overflow="visible" style="display: block;" viewBox="0 0 16 12" fill="none" xmlns="http://www.w3.org/2000/svg">
<path id="Vector" d="M12 11C13.6569 11 15 9.65686 15 8.00001V6.0001M15 6.0001V2.59847C15 2.03951 15 1.75961 14.8911 1.5459C14.7952 1.35774 14.6419 1.20487 14.4537 1.109C14.2398 1.00001 13.9602 1.00001 13.4001 1.00001H11.6001C11.04 1.00001 10.7598 1.00001 10.5459 1.109C10.3577 1.20487 10.2049 1.35774 10.109 1.5459C10 1.75982 10 2.04005 10 2.6001V4.4001C10 4.96016 10 5.23979 10.109 5.4537C10.2049 5.64186 10.3577 5.79525 10.5459 5.89112C10.7596 6.00001 11.0395 6.00001 11.5985 6.00001L15 6.0001ZM3.00001 11C4.65686 11 6.00001 9.65686 6.00001 8.00001L6.00001 6.0001M6.00001 6.0001V2.59846C6.00001 2.03951 6.00001 1.75961 5.89112 1.5459C5.79525 1.35774 5.64186 1.20487 5.4537 1.109C5.23979 1.00001 4.96016 1.00001 4.4001 1.00001H2.6001C2.04005 1.00001 1.75982 1.00001 1.5459 1.109C1.35774 1.20487 1.20487 1.35774 1.109 1.5459C1.00001 1.75982 1.00001 2.04005 1.00001 2.6001V4.4001C1.00001 4.96016 1.00001 5.23979 1.109 5.4537C1.20487 5.64186 1.35774 5.79525 1.5459 5.89112C1.75961 6.00001 2.0395 6.00001 2.59846 6.00001L6.00001 6.0001Z" stroke="currentColor" stroke-width="2" stroke-linecap="round" stroke-linejoin="round"/>
</svg>
