<svg preserveAspectRatio="xMidYMid meet" width="24" height="24" overflow="visible" style="display: block;" viewBox="0 0 17.5 19.5" fill="none" xmlns="http://www.w3.org/2000/svg">
<path id="Vector" d="M10.75 7.75V14.75M6.75 7.75V14.75M2.75 3.75V15.55C2.75 16.6701 2.75 17.2298 2.96799 17.6576C3.15973 18.0339 3.46547 18.3405 3.8418 18.5322C4.2692 18.75 4.82899 18.75 5.94691 18.75H11.5531C12.671 18.75 13.23 18.75 13.6574 18.5322C14.0337 18.3405 14.3405 18.0339 14.5322 17.6576C14.75 17.2302 14.75 16.671 14.75 15.5531V3.75M2.75 3.75H4.75M2.75 3.75H0.75M4.75 3.75H12.75M4.75 3.75C4.75 2.81812 4.75 2.35241 4.90224 1.98486C5.10523 1.49481 5.49432 1.10523 5.98438 0.902241C6.35192 0.750001 6.81812 0.750001 7.75 0.750001H9.75C10.6819 0.750001 11.1478 0.750001 11.5154 0.902241C12.0054 1.10523 12.3947 1.49481 12.5977 1.98486C12.7499 2.35241 12.75 2.81812 12.75 3.75M12.75 3.75H14.75M14.75 3.75H16.75" stroke="currentColor" stroke-width="1.5" stroke-linecap="round" stroke-linejoin="round"/>
</svg>
