<svg preserveAspectRatio="xMidYMid meet" width="24" height="24" overflow="visible" style="display: block;" viewBox="0 0 21.4928 20.3553" fill="none" xmlns="http://www.w3.org/2000/svg">
<g id="Vector">
<path d="M19.0963 7.10066L18.7301 6.89693C18.6733 6.8653 18.6453 6.84942 18.6178 6.83297C18.3447 6.66939 18.1146 6.44337 17.9466 6.17296C17.9297 6.14575 17.9138 6.11722 17.8812 6.06083C17.8487 6.00451 17.8322 5.97597 17.817 5.94772C17.6664 5.6664 17.5849 5.35289 17.58 5.0338C17.5795 5.00172 17.5796 4.96894 17.5807 4.90378L17.5879 4.47852C17.5993 3.79799 17.6051 3.45667 17.5094 3.15035C17.4245 2.87827 17.2824 2.62766 17.0926 2.41499C16.8781 2.17458 16.5811 2.00308 15.9866 1.6605L15.4928 1.37594C14.9 1.03431 14.6035 0.863443 14.2887 0.798302C14.0103 0.740672 13.7229 0.743343 13.4455 0.805626C13.1323 0.875921 12.8395 1.05125 12.2543 1.40169L12.2509 1.40328L11.8971 1.61514C11.8412 1.64864 11.8128 1.66553 11.7848 1.68112C11.5065 1.83584 11.1959 1.92139 10.8776 1.9316C10.8456 1.93263 10.8129 1.93263 10.7477 1.93263C10.6829 1.93263 10.6488 1.93263 10.6168 1.9316C10.2979 1.92134 9.98661 1.83533 9.7079 1.67997C9.67981 1.66431 9.65203 1.64729 9.59596 1.61364L9.23989 1.39986C8.65062 1.0461 8.35554 0.868948 8.04067 0.798302C7.7621 0.7358 7.47376 0.734071 7.1943 0.792443C6.87875 0.858351 6.58216 1.03049 5.98898 1.37477L5.98634 1.37594L5.49868 1.65897L5.49328 1.66227C4.90544 2.00345 4.6108 2.17445 4.39809 2.41387C4.20933 2.62633 4.06824 2.87655 3.98379 3.14791C3.88833 3.45465 3.89342 3.7967 3.90493 4.48043L3.91207 4.90509C3.91315 4.9694 3.91503 5.00135 3.91456 5.03298C3.90983 5.35272 3.82725 5.66687 3.67614 5.94869C3.66119 5.97656 3.64509 6.00444 3.61293 6.06011C3.58075 6.11582 3.56517 6.14352 3.54848 6.17041C3.37976 6.44226 3.14853 6.6696 2.87372 6.83346C2.84654 6.84967 2.81789 6.86525 2.76161 6.89645L2.40004 7.09681C1.79848 7.43018 1.49776 7.59701 1.27895 7.83443C1.08538 8.04446 0.939145 8.29358 0.849883 8.5649C0.748981 8.8716 0.749066 9.21552 0.750628 9.90328L0.751905 10.4654C0.753457 11.1486 0.755586 11.4899 0.856712 11.7946C0.946179 12.0641 1.09134 12.3117 1.28383 12.5205C1.50141 12.7564 1.79913 12.9222 2.39614 13.2544L2.75448 13.4537C2.81546 13.4876 2.84615 13.5044 2.87556 13.5221C3.14787 13.6861 3.37728 13.9128 3.54457 14.1831C3.56265 14.2123 3.58 14.2426 3.61469 14.3032C3.64895 14.363 3.66648 14.393 3.68233 14.423C3.829 14.7007 3.90753 15.0092 3.91289 15.3232C3.91346 15.3571 3.91297 15.3914 3.91181 15.4604L3.90493 15.8679C3.89334 16.554 3.8883 16.8974 3.98431 17.205C4.06926 17.4771 4.21123 17.7277 4.40102 17.9404C4.61554 18.1808 4.91294 18.3522 5.50746 18.6948L6.00117 18.9793C6.59402 19.3209 6.89034 19.4916 7.20508 19.5567C7.48353 19.6144 7.77104 19.6121 8.04848 19.5498C8.36206 19.4794 8.65587 19.3035 9.24282 18.9521L9.59664 18.7402C9.65262 18.7067 9.68096 18.6899 9.70901 18.6743C9.98728 18.5196 10.2976 18.4336 10.6159 18.4234C10.6479 18.4223 10.6806 18.4223 10.7458 18.4223C10.8112 18.4223 10.8438 18.4223 10.8759 18.4234C11.1948 18.4336 11.5071 18.5199 11.7858 18.6753C11.8103 18.6889 11.8349 18.7037 11.878 18.7296L12.2542 18.9554C12.8435 19.3092 13.138 19.4859 13.4529 19.5565C13.7314 19.619 14.02 19.6216 14.2995 19.5632C14.6149 19.4973 14.9121 19.3248 15.505 18.9807L16 18.6934C16.5882 18.3521 16.8831 18.1809 17.0959 17.9414C17.2847 17.7289 17.4259 17.4788 17.5104 17.2074C17.6052 16.9029 17.5994 16.5635 17.5881 15.8896L17.5807 15.4502C17.5796 15.3858 17.5795 15.3539 17.58 15.3222C17.5847 15.0025 17.6659 14.6881 17.817 14.4063C17.832 14.3785 17.8482 14.3504 17.8802 14.2949C17.9124 14.2392 17.9291 14.2114 17.9458 14.1845C18.1145 13.9127 18.3459 13.6851 18.6207 13.5213C18.6476 13.5053 18.6752 13.49 18.7302 13.4595L18.7321 13.4586L19.0936 13.2583C19.6952 12.9249 19.9965 12.7579 20.2153 12.5205C20.4089 12.3104 20.5549 12.0617 20.6442 11.7903C20.7445 11.4854 20.7437 11.1435 20.7422 10.4638L20.7409 9.88961C20.7393 9.20644 20.7385 8.86513 20.6373 8.56051C20.5479 8.29101 20.4019 8.04334 20.2094 7.83458C19.992 7.59884 19.6939 7.43299 19.0981 7.10151L19.0963 7.10066Z" stroke="currentColor" stroke-width="1.5" stroke-linecap="round" stroke-linejoin="round"/>
<path d="M6.74672 10.1777C6.74672 12.3868 8.53758 14.1777 10.7467 14.1777C12.9559 14.1777 14.7467 12.3868 14.7467 10.1777C14.7467 7.96856 12.9559 6.1777 10.7467 6.1777C8.53758 6.1777 6.74672 7.96856 6.74672 10.1777Z" stroke="currentColor" stroke-width="1.5" stroke-linecap="round" stroke-linejoin="round"/>
</g>
</svg>
