<svg preserveAspectRatio="xMidYMid meet" width="24" height="24" overflow="visible" style="display: block;" viewBox="0 0 19.5 16.5" fill="none" xmlns="http://www.w3.org/2000/svg">
<path id="Union" d="M14.0127 0C15.3271 0 16.489 0.465669 17.3896 1.01855C18.2874 1.56971 18.9706 2.23433 19.3408 2.70703C19.444 2.83886 19.4999 3.00155 19.5 3.16895V15.2666C19.4998 15.5379 19.3529 15.7883 19.1162 15.9209C18.8794 16.0533 18.5897 16.047 18.3584 15.9053C17.8965 15.6222 17.5217 15.324 16.8643 15.0518C16.2323 14.7901 15.3435 14.5645 14.0127 14.5645C12.7717 14.5646 11.8508 14.9853 11.2383 15.4023C10.9306 15.6119 10.7017 15.8204 10.5527 15.9727C10.4788 16.0482 10.4248 16.1089 10.3916 16.1484C10.3753 16.1679 10.3636 16.1826 10.3574 16.1904C10.3566 16.1915 10.3551 16.1925 10.3545 16.1934V16.1943L10.3535 16.1953L10.3525 16.1973H10.3516C10.3162 16.2448 10.2745 16.2853 10.2305 16.3223C10.2159 16.3345 10.202 16.3473 10.1865 16.3584C10.1765 16.3656 10.1656 16.3713 10.1553 16.3779C10.1336 16.3919 10.1121 16.4062 10.0889 16.418C10.0705 16.4273 10.0513 16.4346 10.0322 16.4424C10.016 16.449 10.0003 16.4574 9.9834 16.4629C9.90656 16.488 9.82785 16.5 9.75 16.5C9.67215 16.5 9.59344 16.488 9.5166 16.4629C9.49942 16.4573 9.48334 16.4491 9.4668 16.4424C9.44775 16.4346 9.42854 16.4273 9.41016 16.418C9.38694 16.4062 9.36539 16.3919 9.34375 16.3779C9.33343 16.3713 9.32251 16.3656 9.3125 16.3584C9.29704 16.3473 9.28305 16.3345 9.26855 16.3223C9.22475 16.2854 9.18365 16.2446 9.14844 16.1973H9.14746L9.14648 16.1953L9.14551 16.1943V16.1934C9.14485 16.1925 9.14345 16.1915 9.14258 16.1904C9.1364 16.1826 9.12474 16.1679 9.1084 16.1484C9.07521 16.1089 9.02123 16.0482 8.94727 15.9727C8.79826 15.8204 8.56941 15.6119 8.26172 15.4023C7.64923 14.9853 6.72828 14.5646 5.4873 14.5645C4.15652 14.5645 3.26768 14.7901 2.63574 15.0518C1.97826 15.324 1.6035 15.6222 1.1416 15.9053C0.910273 16.047 0.620555 16.0533 0.383789 15.9209C0.147065 15.7883 0.000170298 15.5379 0 15.2666V3.16895C9.13005e-05 3.00155 0.0560184 2.83886 0.15918 2.70703C0.529381 2.23433 1.21257 1.56971 2.11035 1.01855C3.01098 0.465669 4.17285 0 5.4873 0C7.43787 0.000132763 8.90389 0.840532 9.75 1.59375C10.5961 0.840532 12.0621 0.000132763 14.0127 0ZM5.4873 1.5C4.52807 1.5 3.636 1.8417 2.89453 2.29688C2.27775 2.67559 1.79587 3.11518 1.5 3.44434V13.9287C1.67239 13.8383 1.85988 13.7495 2.06152 13.666C2.89011 13.3229 3.97605 13.0645 5.4873 13.0645C7.0198 13.0646 8.19327 13.5678 9 14.0938V2.95605C8.50221 2.41279 7.26927 1.50016 5.4873 1.5ZM14.0127 1.5C12.2307 1.50016 10.9978 2.41279 10.5 2.95605V14.0938C11.3067 13.5678 12.4802 13.0646 14.0127 13.0645C15.5239 13.0645 16.6099 13.3229 17.4385 13.666C17.6401 13.7495 17.8276 13.8383 18 13.9287V3.44434C17.7041 3.11518 17.2222 2.67559 16.6055 2.29688C15.864 1.8417 14.9719 1.5 14.0127 1.5Z" fill="currentColor"/>
</svg>
