<svg preserveAspectRatio="xMidYMid meet" width="24" height="24" overflow="visible" style="display: block;" viewBox="0 0 19.5 16.4998" fill="none" xmlns="http://www.w3.org/2000/svg">
<path id="Vector" d="M9.75 5.54981V15.7498M9.75 5.54981C9.75 3.86965 9.75 3.02992 10.077 2.38819C10.3646 1.8237 10.8232 1.3646 11.3877 1.07698C12.0294 0.750003 12.8696 0.750003 14.5498 0.750003H17.1498C17.7099 0.750003 17.9901 0.750003 18.204 0.858996C18.3922 0.954869 18.5448 1.10774 18.6406 1.2959C18.7496 1.50981 18.75 1.79005 18.75 2.3501V11.1501C18.75 11.7102 18.7496 11.9898 18.6406 12.2037C18.5448 12.3919 18.3925 12.5452 18.2043 12.6411C17.9906 12.75 17.711 12.75 17.152 12.75H14.3193C13.3801 12.75 12.9097 12.75 12.4834 12.8795C12.106 12.9941 11.7557 13.1817 11.451 13.4321C11.1068 13.715 10.846 14.1057 10.325 14.8872L9.75 15.7498M9.75 5.54981C9.75 3.86965 9.74983 3.02992 9.42285 2.38819C9.13523 1.8237 8.67626 1.3646 8.11178 1.07698C7.47004 0.750003 6.62977 0.750003 4.94961 0.750003H2.34961C1.78956 0.750003 1.50981 0.750003 1.2959 0.858996C1.10774 0.954869 0.954869 1.10774 0.858996 1.2959C0.750003 1.50981 0.750003 1.79005 0.750003 2.3501V11.1501C0.750003 11.7102 0.750003 11.9898 0.858996 12.2037C0.954869 12.3919 1.10774 12.5452 1.2959 12.6411C1.5096 12.75 1.78901 12.75 2.34797 12.75H5.18073C6.11994 12.75 6.58942 12.75 7.01569 12.8795C7.39306 12.9941 7.74512 13.1817 8.04981 13.4321C8.39257 13.7139 8.65172 14.1026 9.16848 14.8777L9.75 15.7498" stroke="currentColor" stroke-width="1.5" stroke-linecap="round" stroke-linejoin="round"/>
</svg>
