<svg preserveAspectRatio="xMidYMid meet" width="24" height="24" overflow="visible" style="display: block;" viewBox="0 0 21.155 20.2434" fill="none" xmlns="http://www.w3.org/2000/svg">
<path id="Vector" d="M0.912045 8.39292C0.598795 8.10324 0.768953 7.57955 1.19265 7.52931L7.19622 6.81722C7.36891 6.79674 7.5189 6.68831 7.59173 6.5304L10.124 1.04061C10.3027 0.653178 10.8535 0.653104 11.0322 1.04054L13.5644 6.53029C13.6372 6.68819 13.7862 6.79692 13.9589 6.8174L19.9628 7.52931C20.3865 7.57955 20.5562 8.10339 20.243 8.39308L15.8048 12.4981C15.6772 12.6161 15.6203 12.7919 15.6542 12.9624L16.8321 18.8921C16.9152 19.3106 16.4699 19.6348 16.0976 19.4264L10.8222 16.4728C10.6705 16.3878 10.4861 16.3882 10.3344 16.4732L5.05852 19.4257C4.68622 19.6341 4.24003 19.3106 4.32318 18.8921L5.50123 12.9628C5.53512 12.7922 5.47842 12.6161 5.35075 12.498L0.912045 8.39292Z" stroke="currentColor" stroke-width="1.5" stroke-linecap="round" stroke-linejoin="round"/>
</svg>
