<svg preserveAspectRatio="xMidYMid meet" width="24" height="24" overflow="visible" style="display: block;" viewBox="0 0 19.5 19.5" fill="none" xmlns="http://www.w3.org/2000/svg">
<path id="Vector" d="M0.750051 15.7501C0.750001 15.6855 0.750001 15.6189 0.750001 15.5502V3.9502C0.750001 2.83009 0.750001 2.26962 0.967988 1.8418C1.15973 1.46547 1.46547 1.15973 1.8418 0.967988C2.26962 0.750001 2.83009 0.750001 3.9502 0.750001H15.5502C16.6703 0.750001 17.2301 0.750001 17.6579 0.967988C18.0342 1.15973 18.3405 1.46547 18.5322 1.8418C18.75 2.2692 18.75 2.82899 18.75 3.94691V15.5531C18.75 16.0381 18.75 16.4179 18.7322 16.7274M0.750051 15.7501C0.750821 16.7384 0.763372 17.2558 0.967988 17.6574C1.15973 18.0337 1.46547 18.3405 1.8418 18.5322C2.2692 18.75 2.82899 18.75 3.94691 18.75H15.5536C16.6715 18.75 17.2305 18.75 17.6579 18.5322C18.0342 18.3405 18.3405 18.0337 18.5322 17.6574C18.6555 17.4154 18.709 17.1313 18.7322 16.7274M0.750051 15.7501L5.51798 10.1875L5.51939 10.186C5.94227 9.6926 6.15406 9.44551 6.40527 9.35645C6.62594 9.27821 6.86687 9.28004 7.08643 9.36133C7.33664 9.45397 7.54506 9.70387 7.96191 10.2041L10.6331 13.4095C11.019 13.8726 11.213 14.1054 11.4486 14.1989C11.6565 14.2813 11.8857 14.2906 12.1001 14.2273C12.3442 14.1553 12.5591 13.9404 12.9888 13.5107L13.4858 13.0137C13.9233 12.5762 14.1421 12.3576 14.3897 12.2861C14.6071 12.2234 14.8396 12.2369 15.0488 12.3232C15.287 12.4216 15.4802 12.6624 15.8667 13.1455L18.7322 16.7274M18.7322 16.7274L18.75 16.7496M12.75 6.75C12.1977 6.75 11.75 6.30229 11.75 5.75C11.75 5.19772 12.1977 4.75 12.75 4.75C13.3023 4.75 13.75 5.19772 13.75 5.75C13.75 6.30229 13.3023 6.75 12.75 6.75Z" stroke="currentColor" stroke-width="1.5" stroke-linecap="round" stroke-linejoin="round"/>
</svg>
