<svg preserveAspectRatio="xMidYMid meet" width="24" height="24" overflow="visible" style="display: block;" viewBox="0 0 3 13" fill="none" xmlns="http://www.w3.org/2000/svg">
<g id="Vector">
<path d="M0.75 11.5C0.75 11.9142 1.08579 12.25 1.5 12.25C1.91421 12.25 2.25 11.9142 2.25 11.5C2.25 11.0858 1.91421 10.75 1.5 10.75C1.08579 10.75 0.75 11.0858 0.75 11.5Z" stroke="currentColor" stroke-width="1.5" stroke-linecap="round" stroke-linejoin="round"/>
<path d="M0.75 6.5C0.75 6.91421 1.08579 7.25 1.5 7.25C1.91421 7.25 2.25 6.91421 2.25 6.5C2.25 6.08579 1.91421 5.75 1.5 5.75C1.08579 5.75 0.75 6.08579 0.75 6.5Z" stroke="currentColor" stroke-width="1.5" stroke-linecap="round" stroke-linejoin="round"/>
<path d="M0.75 1.5C0.75 1.91421 1.08579 2.25 1.5 2.25C1.91421 2.25 2.25 1.91421 2.25 1.5C2.25 1.08579 1.91421 0.75 1.5 0.75C1.08579 0.75 0.75 1.08579 0.75 1.5Z" stroke="currentColor" stroke-width="1.5" stroke-linecap="round" stroke-linejoin="round"/>
</g>
</svg>
