<svg preserveAspectRatio="xMidYMid meet" width="24" height="24" overflow="visible" style="display: block;" viewBox="0 0 21.5 17.8424" fill="none" xmlns="http://www.w3.org/2000/svg">
<path id="Vector" d="M0.75 17.0924H2.75M2.75 17.0924H8.75M2.75 17.0924V8.54451C2.75 8.01017 2.75 7.74286 2.81497 7.49422C2.87255 7.27387 2.96779 7.06536 3.0957 6.87693C3.24004 6.6643 3.44064 6.48798 3.84277 6.13611L8.64436 1.93472C9.38984 1.28243 9.76261 0.956255 10.1824 0.832107C10.5526 0.722631 10.9472 0.722631 11.3174 0.832107C11.7375 0.956349 12.1108 1.28283 12.8574 1.93611L17.6574 6.13611C18.0595 6.48797 18.2602 6.6643 18.4046 6.87693C18.5325 7.06535 18.627 7.27387 18.6846 7.49422C18.7495 7.74286 18.75 8.01017 18.75 8.54451V17.0924M8.75 17.0924H12.75M8.75 17.0924V13.0924C8.75 11.9878 9.64543 11.0924 10.75 11.0924C11.8546 11.0924 12.75 11.9878 12.75 13.0924V17.0924M12.75 17.0924H18.75M18.75 17.0924H20.75" stroke="currentColor" stroke-width="1.5" stroke-linecap="round" stroke-linejoin="round"/>
</svg>
