<svg preserveAspectRatio="xMidYMid meet" width="24" height="24" overflow="visible" style="display: block;" viewBox="0 0 17.5001 17.8427" fill="none" xmlns="http://www.w3.org/2000/svg">
<path id="Vector" d="M16.7501 14.0925V8.54451C16.7501 8.01017 16.7496 7.74286 16.6846 7.49422C16.6271 7.27387 16.5325 7.06535 16.4046 6.87693C16.2603 6.6643 16.0596 6.48797 15.6575 6.13611L10.8575 1.93611C10.1109 1.28283 9.73757 0.956349 9.31745 0.832107C8.94726 0.722631 8.55268 0.722631 8.18249 0.832107C7.76268 0.956255 7.38991 1.28242 6.64443 1.93472L1.84284 6.13611C1.44071 6.48798 1.24011 6.6643 1.09577 6.87693C0.967857 7.06536 0.872613 7.27387 0.815037 7.49422C0.750065 7.74286 0.750065 8.01017 0.750065 8.54451V14.0925C0.750065 15.0243 0.750065 15.4901 0.902306 15.8576C1.10529 16.3477 1.49438 16.7375 1.98444 16.9405C2.35198 17.0927 2.81792 17.0927 3.74981 17.0927C4.68169 17.0927 5.14815 17.0927 5.51569 16.9405C6.00575 16.7375 6.39473 16.3478 6.59772 15.8577C6.74996 15.4902 6.75007 15.0242 6.75007 14.0924V13.0924C6.75007 11.9878 7.6455 11.0924 8.75007 11.0924C9.85463 11.0924 10.7501 11.9878 10.7501 13.0924V14.0924C10.7501 15.0242 10.7501 15.4902 10.9023 15.8577C11.1053 16.3478 11.4944 16.7375 11.9844 16.9405C12.352 17.0927 12.8179 17.0927 13.7498 17.0927C14.6817 17.0927 15.1481 17.0927 15.5157 16.9405C16.0057 16.7375 16.3947 16.3477 16.5977 15.8576C16.75 15.4901 16.7501 15.0243 16.7501 14.0925Z" stroke="currentColor" stroke-width="1.5" stroke-linecap="round" stroke-linejoin="round"/>
</svg>
