<svg preserveAspectRatio="xMidYMid meet" width="24" height="24" overflow="visible" style="display: block;" viewBox="0 0 21.5 17.5" fill="none" xmlns="http://www.w3.org/2000/svg">
<path id="Vector" d="M0.75 16.75H2.75M2.75 16.75H13.75M2.75 16.75V11.1182C2.75 10.5928 2.75 10.33 2.813 10.085C2.86883 9.8678 2.96073 9.66184 3.08496 9.47518C3.22505 9.26468 3.42114 9.08842 3.81152 8.7377L6.1131 6.66997C6.86784 5.99192 7.24549 5.65264 7.67249 5.52393C8.04894 5.41045 8.4507 5.41045 8.82715 5.52393C9.25451 5.65275 9.63267 5.9922 10.3887 6.67139L12.6887 8.7377C13.0795 9.08881 13.2745 9.26456 13.4147 9.47518C13.5389 9.66184 13.6307 9.8678 13.6865 10.085C13.7495 10.33 13.75 10.5928 13.75 11.1182V16.75M13.75 16.75H18.75M18.75 16.75H20.75M18.75 16.75V3.94691C18.75 2.82899 18.75 2.2692 18.5322 1.8418C18.3405 1.46547 18.0337 1.15973 17.6574 0.967988C17.2296 0.750001 16.6703 0.750001 15.5502 0.750001H8.9502C7.83009 0.750001 7.26962 0.750001 6.8418 0.967988C6.46547 1.15973 6.15973 1.46547 5.96799 1.8418C5.75 2.26962 5.75 2.83009 5.75 3.9502V6.7502" stroke="currentColor" stroke-width="1.5" stroke-linecap="round" stroke-linejoin="round"/>
</svg>
