<svg preserveAspectRatio="xMidYMid meet" width="24" height="24" overflow="visible" style="display: block;" viewBox="0 0 18.0002 18.3424" fill="none" xmlns="http://www.w3.org/2000/svg">
<path id="Vector" d="M12.0001 8.34236L8.00012 12.3424L6.00012 10.3424M1.00012 14.1425V8.79451C1.00012 8.26017 1.00012 7.99286 1.06509 7.74422C1.12267 7.52387 1.21791 7.31536 1.34582 7.12693C1.49016 6.9143 1.69076 6.73798 2.09289 6.38611L6.89448 2.18472C7.63997 1.53242 8.01273 1.20626 8.43254 1.08211C8.80273 0.972631 9.19731 0.972631 9.5675 1.08211C9.98763 1.20635 10.3609 1.53283 11.1075 2.18611L15.9075 6.38611C16.3097 6.73797 16.5104 6.9143 16.6547 7.12693C16.7826 7.31535 16.8771 7.52387 16.9347 7.74422C16.9997 7.99286 17.0001 8.26017 17.0001 8.79451V14.1459C17.0001 15.2639 17.0001 15.8234 16.7823 16.2508C16.5906 16.6272 16.2838 16.9328 15.9075 17.1246C15.4801 17.3424 14.9211 17.3424 13.8032 17.3424H4.19703C3.07912 17.3424 2.51932 17.3424 2.09192 17.1246C1.71559 16.9328 1.40985 16.6272 1.21811 16.2508C1.00012 15.823 1.00012 15.2626 1.00012 14.1425Z" stroke="currentColor" stroke-width="2" stroke-linecap="round" stroke-linejoin="round"/>
</svg>
