<svg preserveAspectRatio="xMidYMid meet" width="24" height="24" overflow="visible" style="display: block;" viewBox="0 0 15.4999 19.2462" fill="none" xmlns="http://www.w3.org/2000/svg">
<g id="Vector">
<path d="M0.75 7.67285C0.75 12.5247 4.99448 16.5369 6.87319 18.0752C7.14206 18.2954 7.27811 18.4068 7.47871 18.4632C7.63491 18.5072 7.8648 18.5072 8.021 18.4632C8.22197 18.4067 8.35707 18.2963 8.62695 18.0754C10.5057 16.5371 14.7499 12.5251 14.7499 7.6733C14.7499 5.83718 14.0125 4.07605 12.6997 2.77772C11.387 1.47939 9.6066 0.75 7.75008 0.75C5.89357 0.75 4.11301 1.4795 2.80025 2.77783C1.4875 4.07616 0.75 5.83674 0.75 7.67285Z" stroke="currentColor" stroke-width="1.5" stroke-linecap="round" stroke-linejoin="round"/>
<path d="M5.75 6.75C5.75 7.85457 6.64543 8.75 7.75 8.75C8.85457 8.75 9.75 7.85457 9.75 6.75C9.75 5.64543 8.85457 4.75 7.75 4.75C6.64543 4.75 5.75 5.64543 5.75 6.75Z" stroke="currentColor" stroke-width="1.5" stroke-linecap="round" stroke-linejoin="round"/>
</g>
</svg>
