<svg preserveAspectRatio="xMidYMid meet" width="24" height="24" overflow="visible" style="display: block;" viewBox="0 0 19.5 19.5003" fill="none" xmlns="http://www.w3.org/2000/svg">
<path id="Vector" d="M14.75 18.7503L4.75 18.7501M14.75 18.7503L15.5531 18.7501C16.671 18.7501 17.23 18.7501 17.6574 18.5323C18.0337 18.3405 18.3405 18.0344 18.5322 17.6581C18.75 17.2307 18.75 16.6711 18.75 15.5532V6.96961C18.75 6.52079 18.75 6.29527 18.7021 6.08112C18.6595 5.89006 18.5893 5.70658 18.4932 5.53601C18.3866 5.3468 18.237 5.18061 17.9429 4.85384L15.1877 1.79247C14.8469 1.4138 14.6742 1.22187 14.4668 1.08405C14.2803 0.960066 14.0742 0.868648 13.8573 0.81293C13.6125 0.750063 13.3498 0.750063 12.825 0.750063H3.9502C2.83009 0.750063 2.26962 0.750063 1.8418 0.96805C1.46547 1.1598 1.15973 1.46554 0.967988 1.84186C0.750001 2.26968 0.750001 2.83015 0.750001 3.95026V15.5503C0.750001 16.6704 0.750001 17.2296 0.967988 17.6575C1.15973 18.0338 1.46547 18.3405 1.8418 18.5323C2.2692 18.7501 2.82899 18.7501 3.94691 18.7501H4.75M14.75 18.7503V14.947C14.75 13.8291 14.75 13.2693 14.5322 12.8419C14.3405 12.4655 14.0337 12.1598 13.6574 11.9681C13.2296 11.7501 12.6703 11.7501 11.5502 11.7501H7.9502C6.83009 11.7501 6.26962 11.7501 5.8418 11.9681C5.46547 12.1598 5.15973 12.4655 4.96799 12.8419C4.75 13.2697 4.75 13.8302 4.75 14.9503V18.7501M12.75 4.75006H6.75" stroke="currentColor" stroke-width="1.5" stroke-linecap="round" stroke-linejoin="round"/>
</svg>
