<svg preserveAspectRatio="xMidYMid meet" width="24" height="24" overflow="visible" style="display: block;" viewBox="0 0 14 18" fill="none" xmlns="http://www.w3.org/2000/svg">
<path id="Vector" d="M13 9V14C13 15.6569 10.3137 17 7 17C3.68629 17 1 15.6569 1 14V9M13 9V4M13 9C13 10.6569 10.3137 12 7 12C3.68629 12 1 10.6569 1 9M13 4C13 2.34315 10.3137 1 7 1C3.68629 1 1 2.34315 1 4M13 4C13 5.65685 10.3137 7 7 7C3.68629 7 1 5.65685 1 4M1 9V4" stroke="currentColor" stroke-width="2" stroke-linecap="round" stroke-linejoin="round"/>
</svg>
