<svg preserveAspectRatio="xMidYMid meet" width="24" height="24" overflow="visible" style="display: block;" viewBox="0 0 9.30472 14.6002" fill="none" xmlns="http://www.w3.org/2000/svg">
<path id="Vector" d="M0.750202 3.51498C0.977931 2.81326 1.39542 2.18829 1.95626 1.70899C2.5171 1.22968 3.1993 0.915005 3.92794 0.799402C4.65657 0.683799 5.40351 0.772024 6.08516 1.0542C6.76682 1.33637 7.3565 1.80166 7.79024 2.39844C8.22399 2.99521 8.48439 3.70008 8.54237 4.43555C8.60036 5.17101 8.45335 5.90806 8.11847 6.56543C7.7836 7.2228 7.27405 7.77514 6.64504 8.16064C6.01602 8.54614 5.29264 8.75017 4.55489 8.75017V9.74982M4.60469 13.75V13.85L4.50509 13.8502V13.75H4.60469Z" stroke="currentColor" stroke-width="1.5" stroke-linecap="round" stroke-linejoin="round"/>
</svg>
